<svg xmlns="http://www.w3.org/2000/svg" width="256" height="256" xml:space="preserve"><g style="stroke:none;stroke-width:0;stroke-dasharray:none;stroke-linecap:butt;stroke-linejoin:miter;stroke-miterlimit:10;fill:none;fill-rule:nonzero;opacity:1"><path d="M60.961 31.655a2.602 2.602 0 1 0-5.204 0 2.602 2.602 0 0 0 5.204 0zM45 33.079c-6.584 0-11.921 5.337-11.921 11.921a11.886 11.886 0 0 0 3.492 8.429 11.886 11.886 0 0 0 8.43 3.492c3.292 0 6.272-1.334 8.43-3.492A11.886 11.886 0 0 0 56.923 45C56.921 38.416 51.584 33.079 45 33.079z" style="stroke:none;stroke-width:1px;stroke-dasharray:none;stroke-linecap:butt;stroke-linejoin:miter;stroke-miterlimit:10;fill:#000;fill-rule:nonzero;opacity:1" transform="matrix(2.81 0 0 2.81 1.407 1.407)"/><path d="M45 0C20.147 0 0 20.147 0 45s20.147 45 45 45 45-20.147 45-45S69.853 0 45 0zm25 55.238C70 63.391 63.391 70 55.238 70H34.762C26.609 70 20 63.391 20 55.238V34.762c0-3.057.929-5.897 2.521-8.253C25.174 22.582 29.666 20 34.762 20h20.477c5.095 0 9.588 2.582 12.241 6.508A14.698 14.698 0 0 1 70 34.762v20.476z" style="stroke:none;stroke-width:1px;stroke-dasharray:none;stroke-linecap:butt;stroke-linejoin:miter;stroke-miterlimit:10;fill:#000;fill-rule:nonzero;opacity:1" transform="matrix(2.81 0 0 2.81 1.407 1.407)"/></g></svg>