<svg xmlns="http://www.w3.org/2000/svg" width="256" height="256" xml:space="preserve"><g style="stroke:none;stroke-width:0;stroke-dasharray:none;stroke-linecap:butt;stroke-linejoin:miter;stroke-miterlimit:10;fill:none;fill-rule:nonzero;opacity:1"><path d="M0 45c0 24.853 20.147 45 45 45s45-20.147 45-45S69.853 0 45 0 0 20.147 0 45zm10.678-3.715c1.994-8.404 8.688-15.038 17.105-16.979 6.925-1.596 13.498-.108 18.62 3.362-2.685 3.121-4.914 7.905-7.419 15.211a6.995 6.995 0 0 0-7.029-2.748c-2.74.524-4.953 2.725-5.485 5.464A7.007 7.007 0 0 0 33.333 54h.019a6.967 6.967 0 0 0 2.173-.352l-5.187 16.487c-13.27-1.702-23.055-14.541-19.66-28.85zm48.882-.118c5.929 1.706 12.927 0 12.927 0-2.031 8.867-8.471 14.42-17.758 15.096a23.284 23.284 0 0 1-21.396 14.071l7-22.249c7.196-22.869 10.885-24.418 27.95-24.418H80c-1.96 8.633-8.715 15.228-20.44 17.5z" style="stroke:none;stroke-width:1px;stroke-dasharray:none;stroke-linecap:butt;stroke-linejoin:miter;stroke-miterlimit:10;fill:#000;fill-rule:nonzero;opacity:1" transform="matrix(2.81 0 0 2.81 1.407 1.407)"/></g></svg>