<svg xmlns="http://www.w3.org/2000/svg" width="256" height="256" xml:space="preserve"><g style="stroke:none;stroke-width:0;stroke-dasharray:none;stroke-linecap:butt;stroke-linejoin:miter;stroke-miterlimit:10;fill:none;fill-rule:nonzero;opacity:1"><path d="M39.027 49.508A4.517 4.517 0 0 0 34.519 45a4.517 4.517 0 0 0-4.508 4.508c0 2.483 2.014 4.485 4.508 4.508a4.517 4.517 0 0 0 4.508-4.508zM54.395 60.258a14.811 14.811 0 0 1-9.407 2.74 14.697 14.697 0 0 1-9.362-2.83 1.215 1.215 0 0 0-1.712 1.711 17.278 17.278 0 0 0 11.119 3.468 17.282 17.282 0 0 0 11.119-3.468v.179a1.266 1.266 0 0 0 .022-1.778 1.267 1.267 0 0 0-1.779-.022zM55.347 45.156a4.517 4.517 0 0 0-4.508 4.508 4.517 4.517 0 0 0 4.508 4.508l-.034.168h.224a4.501 4.501 0 0 0 4.318-4.676 4.517 4.517 0 0 0-4.508-4.508z" style="stroke:none;stroke-width:1px;stroke-dasharray:none;stroke-linecap:butt;stroke-linejoin:miter;stroke-miterlimit:10;fill:#000;fill-rule:nonzero;opacity:1" transform="matrix(2.81 0 0 2.81 1.407 1.407)"/><path d="M45 0C20.147 0 0 20.147 0 45s20.147 45 45 45 45-20.147 45-45S69.853 0 45 0zm26.375 50.985c.045.66.045 1.32 0 1.98 0 10.089-11.745 18.277-26.23 18.277s-26.23-8.199-26.23-18.277c-.045-.66-.045-1.32 0-1.98a6.372 6.372 0 0 1-1.767-1.186 6.562 6.562 0 0 1-.291-9.284 6.562 6.562 0 0 1 9.284-.291 32.238 32.238 0 0 1 17.55-5.537l3.322-15.615v-.022a1.395 1.395 0 0 1 1.667-1.063l11.029 2.204a4.45 4.45 0 0 1 3.4-2.204c2.472-.269 4.686 1.521 4.955 3.993s-1.521 4.687-3.993 4.955a4.497 4.497 0 0 1-4.955-3.993l-9.631-2.025-2.919 14.038a31.99 31.99 0 0 1 17.327 5.537 6.594 6.594 0 0 1 4.306-1.823c3.635-.123 6.678 2.707 6.812 6.331a6.57 6.57 0 0 1-3.636 5.985z" style="stroke:none;stroke-width:1px;stroke-dasharray:none;stroke-linecap:butt;stroke-linejoin:miter;stroke-miterlimit:10;fill:#000;fill-rule:nonzero;opacity:1" transform="matrix(2.81 0 0 2.81 1.407 1.407)"/></g></svg>