<svg xmlns="http://www.w3.org/2000/svg" width="256" height="256" xml:space="preserve"><g style="stroke:none;stroke-width:0;stroke-dasharray:none;stroke-linecap:butt;stroke-linejoin:miter;stroke-miterlimit:10;fill:none;fill-rule:nonzero;opacity:1"><path d="M45 0C20.147 0 0 20.147 0 45s20.147 45 45 45 45-20.147 45-45S69.853 0 45 0zm27.039 33.277v6.758a23.526 23.526 0 0 1-9.203-1.855 23.522 23.522 0 0 1-5.227-3.048l.048 20.801c-.02 4.684-1.873 9.085-5.227 12.4a17.795 17.795 0 0 1-9.937 4.97c-.881.13-1.777.197-2.684.197-4.013 0-7.823-1.3-10.939-3.698a18.323 18.323 0 0 1-1.681-1.468c-3.635-3.593-5.509-8.462-5.194-13.584a17.46 17.46 0 0 1 4.404-10.532c3.443-3.857 8.26-5.998 13.41-5.998.906 0 1.803.068 2.684.198v9.45a8.474 8.474 0 0 0-2.656-.427c-4.705 0-8.512 3.839-8.442 8.548.045 3.013 1.69 5.646 4.118 7.098a8.395 8.395 0 0 0 3.853 1.182 8.469 8.469 0 0 0 3.126-.415c3.362-1.111 5.787-4.268 5.787-7.992l.011-13.93V16.5h9.307c.009.922.103 1.822.276 2.694a14.394 14.394 0 0 0 5.46 8.678 14.36 14.36 0 0 0 8.678 2.9c.002 0 .029 0 .027-.002v2.507z" style="stroke:none;stroke-width:1px;stroke-dasharray:none;stroke-linecap:butt;stroke-linejoin:miter;stroke-miterlimit:10;fill:#000;fill-rule:nonzero;opacity:1" transform="matrix(2.81 0 0 2.81 1.407 1.407)"/></g></svg>