<svg xmlns="http://www.w3.org/2000/svg" width="256" height="256" xml:space="preserve"><g style="stroke:none;stroke-width:0;stroke-dasharray:none;stroke-linecap:butt;stroke-linejoin:miter;stroke-miterlimit:10;fill:none;fill-rule:nonzero;opacity:1"><path d="M45 0C20.147 0 0 20.147 0 45s20.147 45 45 45 45-20.147 45-45S69.853 0 45 0zm19.882 34.804c.02.44.029.882.029 1.326 0 13.555-10.318 29.187-29.187 29.187a29.038 29.038 0 0 1-15.725-4.608c.803.095 1.619.142 2.447.142a20.59 20.59 0 0 0 12.741-4.391 10.27 10.27 0 0 1-9.583-7.125 10.206 10.206 0 0 0 4.632-.176c-4.693-.941-8.23-5.088-8.23-10.057 0-.045 0-.088.002-.131a10.19 10.19 0 0 0 4.646 1.283 10.25 10.25 0 0 1-4.565-8.539c0-1.879.507-3.64 1.389-5.156 5.059 6.207 12.619 10.289 21.144 10.718a10.24 10.24 0 0 1-.266-2.339c0-5.663 4.594-10.258 10.26-10.258 2.95 0 5.616 1.247 7.488 3.241a20.557 20.557 0 0 0 6.514-2.49 10.296 10.296 0 0 1-4.511 5.675 20.455 20.455 0 0 0 5.891-1.615 20.794 20.794 0 0 1-5.116 5.313z" style="stroke:none;stroke-width:1px;stroke-dasharray:none;stroke-linecap:butt;stroke-linejoin:miter;stroke-miterlimit:10;fill:#000;fill-rule:nonzero;opacity:1" transform="matrix(2.81 0 0 2.81 1.407 1.407)"/></g></svg>